<?xml version="1.0" encoding="utf-8"?>
<!-- Generator: Adobe Illustrator 16.0.0, SVG Export Plug-In . SVG Version: 6.00 Build 0)  -->
<!DOCTYPE svg PUBLIC "-//W3C//DTD SVG 1.1//EN" "http://www.w3.org/Graphics/SVG/1.1/DTD/svg11.dtd">
<svg version="1.1" id="Layer_1" xmlns="http://www.w3.org/2000/svg" xmlns:xlink="http://www.w3.org/1999/xlink" x="0px" y="0px"
	 width="150px" height="150px" viewBox="0 0 150 150" enable-background="new 0 0 150 150" xml:space="preserve">
<g>
	<path fill="#FFFFFF" d="M72.279,105.743c0.182,0.375,0.748,0.756,1.217,0.756l0,0h0.756l0,0c0.469,0,1.313,0,1.782,0l0,0h0.749l0,0
		c0.47,0,1.033-0.381,1.225-0.756l0,0l13.418-34.165l0,0c0.85-1.78,1.504-1.685,1.504,0.284l0,0v20.935l0,0
		c0,2.065-1.128,3.659-2.436,3.659c-1.322,0-2.349,1.597-2.349,3.659l0,0v8.637h22.808v-6.19l0.096-2.446l0,0
		c0-2.063-1.129-3.659-2.439-3.659c-1.127,0-1.978-1.031-2.348-2.438l0,0V59.194c0-1.976,0.938-3.567,2.348-3.567
		c1.311,0,2.439-1.69,2.439-3.664l0,0v-9.573H90.303L74.817,79.563L59.322,42.391H38.396v9.573l0,0c0,1.973,1.027,3.664,2.347,3.664
		c1.408,0,2.437,1.591,2.437,3.567l0,0v33.603l0,0c0,2.065-1.028,3.659-2.437,3.659c-1.319,0-2.347,1.597-2.347,3.659l0,0
		l-0.094,8.637h22.9v-8.637l0,0c0-2.063-1.032-3.659-2.345-3.659c-1.314,0-2.438-1.594-2.438-3.659l0,0V71.862l0,0
		c0-1.969,0.653-2.064,1.498-0.284l0,0L72.279,105.743L72.279,105.743z"/>
	<path fill="#FFFFFF" d="M75.002,0.055c41.307,0,74.998,33.699,74.998,75c0,41.305-33.691,75-74.998,75
		C33.7,150.055,0,116.36,0,75.055C0,33.754,33.7,0.055,75.002,0.055L75.002,0.055z M75.002,14.982
		c-33.042,0-60.075,26.938-60.075,60.073c0,33.038,27.034,60.076,60.075,60.076c33.136,0,60.078-27.038,60.078-60.076
		C135.08,41.92,108.138,14.982,75.002,14.982z"/>
</g>
</svg>
