<?xml version="1.0" encoding="iso-8859-1"?>
<!-- Generator: Adobe Illustrator 16.0.0, SVG Export Plug-In . SVG Version: 6.00 Build 0)  -->
<!DOCTYPE svg PUBLIC "-//W3C//DTD SVG 1.1//EN" "http://www.w3.org/Graphics/SVG/1.1/DTD/svg11.dtd">
<svg xmlns="http://www.w3.org/2000/svg" xmlns:xlink="http://www.w3.org/1999/xlink" version="1.1" id="Capa_1" x="0px" y="0px" width="512px" height="512px" viewBox="0 0 94.268 94.268" style="enable-background:new 0 0 94.268 94.268;" xml:space="preserve">
<g>
	<path d="M67.536,94.268H26.732c-2.501,0-4.536-2.035-4.536-4.535V4.535C22.196,2.034,24.231,0,26.732,0h40.804   c2.501,0,4.536,2.034,4.536,4.535v85.198C72.072,92.232,70.037,94.268,67.536,94.268z M26.732,1c-1.95,0-3.536,1.586-3.536,3.535   v85.198c0,1.948,1.586,3.534,3.536,3.534h40.804c1.95,0,3.536-1.586,3.536-3.534V4.535C71.072,2.586,69.486,1,67.536,1H26.732z    M47.134,90.623c-1.728,0-3.134-1.406-3.134-3.135c0-1.728,1.406-3.133,3.134-3.133s3.134,1.405,3.134,3.133   C50.268,89.217,48.862,90.623,47.134,90.623z M47.134,85.355c-1.177,0-2.134,0.957-2.134,2.135c0,1.177,0.957,2.134,2.134,2.134   c1.177,0,2.134-0.957,2.134-2.134C49.268,86.312,48.311,85.355,47.134,85.355z M68.191,82.609H26.077V11.658H68.19L68.191,82.609   L68.191,82.609z M27.077,81.609H67.19V12.658H27.077V81.609z M50.581,7.225h-6.894c-0.507,0-0.92-0.414-0.92-0.921   s0.413-0.921,0.92-0.921h6.894c0.508,0,0.92,0.414,0.92,0.921S51.088,7.225,50.581,7.225z M63.176,5.758   c-0.965,0-1.75-0.785-1.75-1.75s0.785-1.75,1.75-1.75s1.75,0.785,1.75,1.75S64.141,5.758,63.176,5.758z M63.176,3.258   c-0.414,0-0.75,0.337-0.75,0.75c0,0.414,0.336,0.75,0.75,0.75s0.75-0.336,0.75-0.75C63.926,3.595,63.59,3.258,63.176,3.258z" fill="#00FF00"/>
</g>
<g>
</g>
<g>
</g>
<g>
</g>
<g>
</g>
<g>
</g>
<g>
</g>
<g>
</g>
<g>
</g>
<g>
</g>
<g>
</g>
<g>
</g>
<g>
</g>
<g>
</g>
<g>
</g>
<g>
</g>
</svg>
